<svg xmlns="http://www.w3.org/2000/svg" enable-background="new 0 0 24 24" viewBox="0 0 24 24"><polygon fill="#218EEE" points="16.099 2.302 12.088 0 7.896 2.568 11.965 4.786 16.099 2.302"/><polygon fill="#218EEE" points="1.5 7.955 1.5 18 11.814 24 22.5 18 22.5 6 17.745 3.286 13.602 5.776 18.385 8.474 18.385 15.552 11.96 19.092 5.643 15.552 5.643 10.068 1.5 7.955"/><polygon fill="#1D7CCF" points="12 .053 7.896 2.568 11.965 4.786 12 4.765 12 .053"/><polygon fill="#1D7CCF" points="1.5 7.955 1.5 18 11.814 24 12 23.896 12 19.07 11.96 19.092 5.643 15.552 5.643 10.068 1.5 7.955"/></svg>